<svg width="148" height="31" viewBox="0 0 148 31" fill="none" xmlns="http://www.w3.org/2000/svg">
<g clip-path="url(#clip0_4_4158)">
<path fill-rule="evenodd" clip-rule="evenodd" d="M106.628 0L101.178 15.5457L101.559 0H91.666L93.3783 30.9204H102.902L113.276 7.76094H115.097L110.975 30.9204H120.462L125.94 0H106.628Z" fill="#D81F30"/>
<path fill-rule="evenodd" clip-rule="evenodd" d="M140.582 0.000151127H128.05L122.572 30.9206H132.056L133.5 23.2272C141.7 23.3108 147.331 19.3448 147.936 11.1304C148.365 5.28283 146.813 1.14579 140.582 -0.0078125V0.000151127ZM138.324 11.4764C138.175 13.2466 137.073 15.2078 135.116 15.4067L136.511 7.72128C137.899 8.44128 138.428 10.0046 138.308 11.4764" fill="#D81F30"/>
<path fill-rule="evenodd" clip-rule="evenodd" d="M22.296 15.49C24.7502 14.5592 26.3823 11.874 26.8996 8.96617C27.7417 4.19266 25.3637 1.0462 20.7121 0H1.37145L0 7.71714H5.61411L1.45565 30.9125H15.9762C18.237 30.5607 20.3301 29.5158 21.9619 27.9242C23.5937 26.3326 24.6823 24.2741 25.075 22.0377C25.6124 19.0025 25.2114 16.7391 22.296 15.502V15.49ZM15.4789 20.8443C15.0779 23.1396 12.752 23.2311 12.0503 23.2311L12.8844 18.6246H13.0608C14.5887 18.6246 15.7997 19.1617 15.4949 20.8642L15.4789 20.8443ZM17.2995 9.67425C16.9706 11.4723 15.1781 11.8303 14.0914 11.8661L14.8413 7.76094H15.1741C16.5456 7.76094 17.5802 8.13082 17.3035 9.67425" fill="white"/>
<path fill-rule="evenodd" clip-rule="evenodd" d="M48.8588 2.94368C47.1626 1.01041 44.7766 0.027832 41.761 0.027832C33.4401 0.027832 28.2992 7.76091 26.8956 15.4304C25.9252 20.713 26.7593 25.3315 29.1854 28.1001C30.8776 30.0374 33.2677 31.0199 36.2792 31.0199C44.6001 31.0199 49.7411 23.2829 51.1486 15.6174C52.115 10.3307 51.2809 5.71232 48.8588 2.94368ZM41.7049 15.3707C40.8547 20.001 39.363 23.259 37.6025 23.259C35.0762 23.259 36.1188 16.763 36.3354 15.5617C37.1855 10.9314 38.7815 7.77285 40.5379 7.77285C43.0643 7.77285 41.9254 14.1694 41.7049 15.3707Z" fill="white"/>
<path fill-rule="evenodd" clip-rule="evenodd" d="M62.9986 11.6038L53.5307 11.5083L53.0977 13.9348L62.6777 13.4257L62.9986 11.6038Z" fill="white"/>
<path fill-rule="evenodd" clip-rule="evenodd" d="M89.2162 20.6894L69.2059 18.975L67.5658 23.1796H62.4489H61.0013L62.088 16.7433L57.8173 16.5405L62.1602 16.3455L62.5371 14.2094L53.0974 13.9429L50.0898 30.9207H74.0019L75.2932 27.2769H79.9048L79.9128 30.9207H89.6012L89.2162 20.6894Z" fill="white"/>
<path fill-rule="evenodd" clip-rule="evenodd" d="M89.1156 18.0519L69.9835 17.125L69.2617 18.8395L89.1236 18.2547L89.1156 18.0519Z" fill="white"/>
<path fill-rule="evenodd" clip-rule="evenodd" d="M88.8793 11.8663L72.2656 11.6992L71.7402 12.9443L88.8873 12.0334L88.8793 11.8663Z" fill="white"/>
<path fill-rule="evenodd" clip-rule="evenodd" d="M88.9994 14.9608L71.1065 14.4517L70.4648 15.9792L89.0074 15.1597L88.9994 14.9608Z" fill="white"/>
<path fill-rule="evenodd" clip-rule="evenodd" d="M65.0557 0H55.5679L53.5869 11.178L63.1229 10.9035L65.0557 0Z" fill="white"/>
<path fill-rule="evenodd" clip-rule="evenodd" d="M88.4344 0H77.1821L72.7148 10.629L88.8153 9.41576L88.4344 0Z" fill="white"/>
</g>
<defs>
<clipPath id="clip0_4_4158">
<rect width="148" height="31" fill="white"/>
</clipPath>
</defs>
</svg>
